<!--?xml version="1.0" standalone="no"?-->
              <svg id="sw-js-blob-svg" viewBox="0 0 100 100" xmlns="http://www.w3.org/2000/svg" version="1.1">
                    <defs> 
                        <linearGradient id="sw-gradient" x1="0" x2="1" y1="1" y2="0">
                            <stop id="stop1" stop-color="rgba(55, 150.247, 248, 1)" offset="0%"></stop>
                            <stop id="stop2" stop-color="rgba(251, 168, 31, 1)" offset="100%"></stop>
                        </linearGradient>
                    </defs>
                <path fill="url(#sw-gradient)" d="M25.1,-31.8C31.5,-24.6,34.9,-15.7,36.2,-6.6C37.6,2.5,37.1,11.8,33.5,20.6C29.9,29.3,23.3,37.6,14.8,40.7C6.3,43.9,-4.1,41.9,-12.6,37.5C-21,33.2,-27.5,26.4,-30,18.9C-32.5,11.3,-31.1,3.1,-28.4,-3.7C-25.7,-10.5,-21.7,-15.8,-16.7,-23.2C-11.8,-30.7,-5.9,-40.3,1.8,-42.4C9.4,-44.5,18.8,-39,25.1,-31.8Z" width="100%" height="100%" transform="translate(50 50)" stroke-width="0" style="transition: all 0.3s ease 0s;"></path>
              </svg>